<mxfile host="app.diagrams.net" agent="Mozilla/5.0 (Windows NT 10.0; Win64; x64) AppleWebKit/537.36 (KHTML, like Gecko) Chrome/134.0.0.0 Safari/537.36" version="26.2.3">
  <diagram id="_k8HdVeGjoaW4lcsoeBy" name="PÃ¡gina-1">
    <mxGraphModel dx="2233" dy="1722" grid="1" gridSize="10" guides="1" tooltips="1" connect="1" arrows="1" fold="1" page="1" pageScale="1" pageWidth="827" pageHeight="1169" math="0" shadow="0">
      <root>
        <mxCell id="0" />
        <mxCell id="1" parent="0" />
        <mxCell id="YumCOL-C7TULn1oq75Tp-16" value="" style="ellipse;html=1;shape=startState;fillColor=#000000;strokeColor=#ff0000;" parent="1" vertex="1">
          <mxGeometry x="399" y="-230" width="30" height="30" as="geometry" />
        </mxCell>
        <mxCell id="YumCOL-C7TULn1oq75Tp-17" value="" style="edgeStyle=orthogonalEdgeStyle;html=1;verticalAlign=bottom;endArrow=open;endSize=8;strokeColor=#ff0000;rounded=0;" parent="1" source="YumCOL-C7TULn1oq75Tp-16" target="YumCOL-C7TULn1oq75Tp-21" edge="1">
          <mxGeometry relative="1" as="geometry">
            <mxPoint x="414.0000000000002" y="-140" as="targetPoint" />
          </mxGeometry>
        </mxCell>
        <mxCell id="YumCOL-C7TULn1oq75Tp-21" value="Mostrar pagina inicial" style="rounded=1;whiteSpace=wrap;html=1;arcSize=50;fontColor=#000000;fillColor=#ffffc0;strokeColor=#ff0000;" parent="1" vertex="1">
          <mxGeometry x="354" y="-170" width="120" height="30" as="geometry" />
        </mxCell>
        <mxCell id="YumCOL-C7TULn1oq75Tp-22" value="" style="edgeStyle=orthogonalEdgeStyle;html=1;verticalAlign=bottom;endArrow=open;endSize=8;strokeColor=#ff0000;rounded=0;" parent="1" source="YumCOL-C7TULn1oq75Tp-21" target="D-d8iR-5o8ocIs88Af24-23" edge="1">
          <mxGeometry relative="1" as="geometry">
            <mxPoint x="660" y="-160" as="targetPoint" />
          </mxGeometry>
        </mxCell>
        <mxCell id="YumCOL-C7TULn1oq75Tp-25" value="" style="ellipse;html=1;shape=endState;fillColor=#000000;strokeColor=#ff0000;" parent="1" vertex="1">
          <mxGeometry x="-375" y="215" width="30" height="30" as="geometry" />
        </mxCell>
        <mxCell id="D-d8iR-5o8ocIs88Af24-1" value="Otra vez" style="rhombus;whiteSpace=wrap;html=1;fontColor=#000000;fillColor=#ffffc0;strokeColor=#ff0000;" parent="1" vertex="1">
          <mxGeometry x="1050" y="60" width="80" height="40" as="geometry" />
        </mxCell>
        <mxCell id="D-d8iR-5o8ocIs88Af24-2" value="no" style="edgeStyle=orthogonalEdgeStyle;html=1;align=left;verticalAlign=bottom;endArrow=open;endSize=8;strokeColor=#ff0000;rounded=0;" parent="1" source="D-d8iR-5o8ocIs88Af24-1" target="YumCOL-C7TULn1oq75Tp-21" edge="1">
          <mxGeometry x="-0.8662" y="10" relative="1" as="geometry">
            <mxPoint x="1090" y="180" as="targetPoint" />
            <Array as="points">
              <mxPoint x="1090" y="240" />
              <mxPoint x="414" y="240" />
            </Array>
            <mxPoint as="offset" />
          </mxGeometry>
        </mxCell>
        <mxCell id="D-d8iR-5o8ocIs88Af24-3" value="yes" style="edgeStyle=orthogonalEdgeStyle;html=1;align=left;verticalAlign=top;endArrow=open;endSize=8;strokeColor=#ff0000;rounded=0;" parent="1" source="D-d8iR-5o8ocIs88Af24-1" target="D-d8iR-5o8ocIs88Af24-23" edge="1">
          <mxGeometry x="-0.3231" y="30" relative="1" as="geometry">
            <mxPoint x="1170" y="90" as="targetPoint" />
            <Array as="points">
              <mxPoint x="1210" y="80" />
              <mxPoint x="1210" y="-105" />
            </Array>
            <mxPoint as="offset" />
          </mxGeometry>
        </mxCell>
        <mxCell id="D-d8iR-5o8ocIs88Af24-16" value="Bien escrito" style="rhombus;whiteSpace=wrap;html=1;fontColor=#000000;fillColor=#ffffc0;strokeColor=#ff0000;" parent="1" vertex="1">
          <mxGeometry x="675" y="-55" width="90" height="50" as="geometry" />
        </mxCell>
        <mxCell id="D-d8iR-5o8ocIs88Af24-17" value="no" style="edgeStyle=orthogonalEdgeStyle;html=1;align=left;verticalAlign=bottom;endArrow=open;endSize=8;strokeColor=#ff0000;rounded=0;" parent="1" source="D-d8iR-5o8ocIs88Af24-16" target="D-d8iR-5o8ocIs88Af24-35" edge="1">
          <mxGeometry x="-1" relative="1" as="geometry">
            <mxPoint x="800.12" y="5" as="targetPoint" />
            <mxPoint x="780.0023529411766" y="-104.94117647058829" as="sourcePoint" />
            <Array as="points">
              <mxPoint x="810" y="-35" />
            </Array>
          </mxGeometry>
        </mxCell>
        <mxCell id="D-d8iR-5o8ocIs88Af24-18" value="yes" style="edgeStyle=orthogonalEdgeStyle;html=1;align=left;verticalAlign=top;endArrow=open;endSize=8;strokeColor=#ff0000;rounded=0;" parent="1" source="D-d8iR-5o8ocIs88Af24-16" target="D-d8iR-5o8ocIs88Af24-38" edge="1">
          <mxGeometry x="0.126" y="-25" relative="1" as="geometry">
            <mxPoint x="660" y="5" as="targetPoint" />
            <Array as="points">
              <mxPoint x="620" y="-30" />
            </Array>
            <mxPoint as="offset" />
          </mxGeometry>
        </mxCell>
        <mxCell id="D-d8iR-5o8ocIs88Af24-19" value="" style="edgeStyle=orthogonalEdgeStyle;html=1;verticalAlign=bottom;endArrow=open;endSize=8;strokeColor=#ff0000;rounded=0;" parent="1" source="YumCOL-C7TULn1oq75Tp-21" target="D-d8iR-5o8ocIs88Af24-48" edge="1">
          <mxGeometry relative="1" as="geometry">
            <mxPoint x="150" y="-80" as="targetPoint" />
            <mxPoint x="484" y="-145" as="sourcePoint" />
          </mxGeometry>
        </mxCell>
        <mxCell id="D-d8iR-5o8ocIs88Af24-20" value="" style="edgeStyle=orthogonalEdgeStyle;html=1;verticalAlign=bottom;endArrow=open;endSize=8;strokeColor=#ff0000;rounded=0;" parent="1" source="YumCOL-C7TULn1oq75Tp-21" target="D-d8iR-5o8ocIs88Af24-58" edge="1">
          <mxGeometry relative="1" as="geometry">
            <mxPoint x="-329.95652173913027" y="-74.97826086956525" as="targetPoint" />
            <mxPoint x="494" y="-135" as="sourcePoint" />
          </mxGeometry>
        </mxCell>
        <mxCell id="D-d8iR-5o8ocIs88Af24-21" value="" style="edgeStyle=orthogonalEdgeStyle;html=1;verticalAlign=bottom;endArrow=open;endSize=8;strokeColor=#ff0000;rounded=0;" parent="1" source="YumCOL-C7TULn1oq75Tp-21" target="D-d8iR-5o8ocIs88Af24-33" edge="1">
          <mxGeometry relative="1" as="geometry">
            <mxPoint x="530" y="-100" as="targetPoint" />
            <mxPoint x="364" y="-145" as="sourcePoint" />
          </mxGeometry>
        </mxCell>
        <mxCell id="D-d8iR-5o8ocIs88Af24-23" value="Clic en selector idioma" style="rounded=1;whiteSpace=wrap;html=1;arcSize=40;fontColor=#000000;fillColor=#ffffc0;strokeColor=#ff0000;" parent="1" vertex="1">
          <mxGeometry x="1030" y="-120" width="120" height="30" as="geometry" />
        </mxCell>
        <mxCell id="D-d8iR-5o8ocIs88Af24-24" value="" style="edgeStyle=orthogonalEdgeStyle;html=1;verticalAlign=bottom;endArrow=open;endSize=8;strokeColor=#ff0000;rounded=0;" parent="1" target="D-d8iR-5o8ocIs88Af24-25" edge="1">
          <mxGeometry relative="1" as="geometry">
            <mxPoint x="1091.0285714285715" y="-65" as="targetPoint" />
            <Array as="points">
              <mxPoint x="1091" y="-90" />
            </Array>
            <mxPoint x="1090" y="-90" as="sourcePoint" />
          </mxGeometry>
        </mxCell>
        <mxCell id="D-d8iR-5o8ocIs88Af24-25" value="Desplegar opciones" style="rounded=1;whiteSpace=wrap;html=1;arcSize=40;fontColor=#000000;fillColor=#ffffc0;strokeColor=#ff0000;" parent="1" vertex="1">
          <mxGeometry x="1030" y="-65" width="120" height="20" as="geometry" />
        </mxCell>
        <mxCell id="D-d8iR-5o8ocIs88Af24-26" value="" style="edgeStyle=orthogonalEdgeStyle;html=1;verticalAlign=bottom;endArrow=open;endSize=8;strokeColor=#ff0000;rounded=0;" parent="1" source="D-d8iR-5o8ocIs88Af24-25" target="D-d8iR-5o8ocIs88Af24-27" edge="1">
          <mxGeometry relative="1" as="geometry">
            <mxPoint x="1090" y="-20" as="targetPoint" />
            <Array as="points">
              <mxPoint x="1090" y="-30" />
              <mxPoint x="1090" y="-30" />
            </Array>
          </mxGeometry>
        </mxCell>
        <mxCell id="D-d8iR-5o8ocIs88Af24-27" value="Seleccionar idioma" style="rounded=1;whiteSpace=wrap;html=1;arcSize=40;fontColor=#000000;fillColor=#ffffc0;strokeColor=#ff0000;" parent="1" vertex="1">
          <mxGeometry x="1030" y="-30" width="120" height="20" as="geometry" />
        </mxCell>
        <mxCell id="D-d8iR-5o8ocIs88Af24-28" value="" style="edgeStyle=orthogonalEdgeStyle;html=1;verticalAlign=bottom;endArrow=open;endSize=8;strokeColor=#ff0000;rounded=0;" parent="1" source="D-d8iR-5o8ocIs88Af24-27" target="D-d8iR-5o8ocIs88Af24-29" edge="1">
          <mxGeometry relative="1" as="geometry">
            <mxPoint x="1090" y="30" as="targetPoint" />
          </mxGeometry>
        </mxCell>
        <mxCell id="D-d8iR-5o8ocIs88Af24-29" value="Recargar todos los textos" style="rounded=1;whiteSpace=wrap;html=1;arcSize=40;fontColor=#000000;fillColor=#ffffc0;strokeColor=#ff0000;" parent="1" vertex="1">
          <mxGeometry x="1030" y="10" width="120" height="30" as="geometry" />
        </mxCell>
        <mxCell id="D-d8iR-5o8ocIs88Af24-30" value="" style="edgeStyle=orthogonalEdgeStyle;html=1;verticalAlign=bottom;endArrow=open;endSize=8;strokeColor=#ff0000;rounded=0;" parent="1" source="D-d8iR-5o8ocIs88Af24-29" target="D-d8iR-5o8ocIs88Af24-1" edge="1">
          <mxGeometry relative="1" as="geometry">
            <mxPoint x="1090" y="110" as="targetPoint" />
          </mxGeometry>
        </mxCell>
        <mxCell id="D-d8iR-5o8ocIs88Af24-32" value="Cambio idioma" style="shape=umlFrame;whiteSpace=wrap;html=1;pointerEvents=0;" parent="1" vertex="1">
          <mxGeometry x="1010" y="-200" width="230" height="360" as="geometry" />
        </mxCell>
        <mxCell id="D-d8iR-5o8ocIs88Af24-33" value="Escribir en el cuadro de busqueda" style="rounded=1;whiteSpace=wrap;html=1;arcSize=40;fontColor=#000000;fillColor=#ffffc0;strokeColor=#ff0000;" parent="1" vertex="1">
          <mxGeometry x="660" y="-130" width="120" height="40" as="geometry" />
        </mxCell>
        <mxCell id="D-d8iR-5o8ocIs88Af24-34" value="" style="edgeStyle=orthogonalEdgeStyle;html=1;verticalAlign=bottom;endArrow=open;endSize=8;strokeColor=#ff0000;rounded=0;" parent="1" source="D-d8iR-5o8ocIs88Af24-33" target="D-d8iR-5o8ocIs88Af24-16" edge="1">
          <mxGeometry relative="1" as="geometry">
            <mxPoint x="720" y="-55" as="targetPoint" />
          </mxGeometry>
        </mxCell>
        <mxCell id="D-d8iR-5o8ocIs88Af24-37" style="edgeStyle=orthogonalEdgeStyle;rounded=0;orthogonalLoop=1;jettySize=auto;html=1;exitX=0.5;exitY=1;exitDx=0;exitDy=0;" parent="1" source="D-d8iR-5o8ocIs88Af24-35" edge="1">
          <mxGeometry relative="1" as="geometry">
            <mxPoint x="809.5882352941176" y="5" as="targetPoint" />
          </mxGeometry>
        </mxCell>
        <mxCell id="D-d8iR-5o8ocIs88Af24-35" value="No se encuentra" style="rounded=1;whiteSpace=wrap;html=1;arcSize=40;fontColor=#000000;fillColor=#ffffc0;strokeColor=#ff0000;" parent="1" vertex="1">
          <mxGeometry x="750" y="-5" width="120" height="20" as="geometry" />
        </mxCell>
        <mxCell id="D-d8iR-5o8ocIs88Af24-36" value="" style="edgeStyle=orthogonalEdgeStyle;html=1;verticalAlign=bottom;endArrow=open;endSize=8;strokeColor=#ff0000;rounded=0;" parent="1" source="D-d8iR-5o8ocIs88Af24-35" target="D-d8iR-5o8ocIs88Af24-33" edge="1">
          <mxGeometry relative="1" as="geometry">
            <mxPoint x="790" y="-90" as="targetPoint" />
            <Array as="points">
              <mxPoint x="850" y="-120" />
            </Array>
          </mxGeometry>
        </mxCell>
        <mxCell id="D-d8iR-5o8ocIs88Af24-38" value="Se encuentra" style="rounded=1;whiteSpace=wrap;html=1;arcSize=40;fontColor=#000000;fillColor=#ffffc0;strokeColor=#ff0000;" parent="1" vertex="1">
          <mxGeometry x="570" y="-5" width="100" height="20" as="geometry" />
        </mxCell>
        <mxCell id="D-d8iR-5o8ocIs88Af24-39" value="" style="edgeStyle=orthogonalEdgeStyle;html=1;verticalAlign=bottom;endArrow=open;endSize=8;strokeColor=#ff0000;rounded=0;" parent="1" source="D-d8iR-5o8ocIs88Af24-38" target="D-d8iR-5o8ocIs88Af24-41" edge="1">
          <mxGeometry relative="1" as="geometry">
            <mxPoint x="620" y="45" as="targetPoint" />
          </mxGeometry>
        </mxCell>
        <mxCell id="D-d8iR-5o8ocIs88Af24-41" value="Muesta el personaje" style="rounded=1;whiteSpace=wrap;html=1;arcSize=40;fontColor=#000000;fillColor=#ffffc0;strokeColor=#ff0000;" parent="1" vertex="1">
          <mxGeometry x="560" y="35" width="120" height="20" as="geometry" />
        </mxCell>
        <mxCell id="D-d8iR-5o8ocIs88Af24-42" value="" style="edgeStyle=orthogonalEdgeStyle;html=1;verticalAlign=bottom;endArrow=open;endSize=8;strokeColor=#ff0000;rounded=0;" parent="1" source="D-d8iR-5o8ocIs88Af24-41" target="D-d8iR-5o8ocIs88Af24-43" edge="1">
          <mxGeometry relative="1" as="geometry">
            <mxPoint x="620" y="85" as="targetPoint" />
            <Array as="points">
              <mxPoint x="620" y="85" />
            </Array>
          </mxGeometry>
        </mxCell>
        <mxCell id="D-d8iR-5o8ocIs88Af24-43" value="Otra vez" style="rhombus;whiteSpace=wrap;html=1;fontColor=#000000;fillColor=#ffffc0;strokeColor=#ff0000;" parent="1" vertex="1">
          <mxGeometry x="680" y="65" width="80" height="40" as="geometry" />
        </mxCell>
        <mxCell id="D-d8iR-5o8ocIs88Af24-44" value="no" style="edgeStyle=orthogonalEdgeStyle;html=1;align=left;verticalAlign=bottom;endArrow=open;endSize=8;strokeColor=#ff0000;rounded=0;" parent="1" source="D-d8iR-5o8ocIs88Af24-43" target="YumCOL-C7TULn1oq75Tp-21" edge="1">
          <mxGeometry x="-0.786" y="10" relative="1" as="geometry">
            <mxPoint x="720" y="155" as="targetPoint" />
            <Array as="points">
              <mxPoint x="720" y="180" />
              <mxPoint x="414" y="180" />
            </Array>
            <mxPoint x="10" y="-10" as="offset" />
          </mxGeometry>
        </mxCell>
        <mxCell id="D-d8iR-5o8ocIs88Af24-45" value="yes" style="edgeStyle=orthogonalEdgeStyle;html=1;align=left;verticalAlign=top;endArrow=open;endSize=8;strokeColor=#ff0000;rounded=0;" parent="1" source="D-d8iR-5o8ocIs88Af24-43" target="D-d8iR-5o8ocIs88Af24-33" edge="1">
          <mxGeometry x="-0.7757" y="-25" relative="1" as="geometry">
            <mxPoint x="720" y="165" as="targetPoint" />
            <Array as="points">
              <mxPoint x="720" y="115" />
              <mxPoint x="540" y="115" />
              <mxPoint x="540" y="-110" />
            </Array>
            <mxPoint as="offset" />
          </mxGeometry>
        </mxCell>
        <mxCell id="D-d8iR-5o8ocIs88Af24-46" value="Buscar personaje" style="shape=umlFrame;whiteSpace=wrap;html=1;pointerEvents=0;width=70;height=40;" parent="1" vertex="1">
          <mxGeometry x="530" y="-190" width="350" height="350" as="geometry" />
        </mxCell>
        <mxCell id="D-d8iR-5o8ocIs88Af24-48" value="Selecciona universo para filtrar" style="rounded=1;whiteSpace=wrap;html=1;arcSize=40;fontColor=#000000;fillColor=#ffffc0;strokeColor=#ff0000;" parent="1" vertex="1">
          <mxGeometry x="90" y="-110" width="120" height="30" as="geometry" />
        </mxCell>
        <mxCell id="D-d8iR-5o8ocIs88Af24-49" value="" style="edgeStyle=orthogonalEdgeStyle;html=1;verticalAlign=bottom;endArrow=open;endSize=8;strokeColor=#ff0000;rounded=0;" parent="1" source="D-d8iR-5o8ocIs88Af24-48" target="D-d8iR-5o8ocIs88Af24-50" edge="1">
          <mxGeometry relative="1" as="geometry">
            <mxPoint x="150" y="-40" as="targetPoint" />
          </mxGeometry>
        </mxCell>
        <mxCell id="D-d8iR-5o8ocIs88Af24-50" value="Se filtran todos los personaje&amp;nbsp;" style="rounded=1;whiteSpace=wrap;html=1;arcSize=40;fontColor=#000000;fillColor=#ffffc0;strokeColor=#ff0000;" parent="1" vertex="1">
          <mxGeometry x="90" y="-55" width="120" height="40" as="geometry" />
        </mxCell>
        <mxCell id="D-d8iR-5o8ocIs88Af24-51" value="" style="edgeStyle=orthogonalEdgeStyle;html=1;verticalAlign=bottom;endArrow=open;endSize=8;strokeColor=#ff0000;rounded=0;" parent="1" source="D-d8iR-5o8ocIs88Af24-50" target="D-d8iR-5o8ocIs88Af24-52" edge="1">
          <mxGeometry relative="1" as="geometry">
            <mxPoint x="90" y="90" as="targetPoint" />
            <Array as="points">
              <mxPoint x="150" y="20" />
              <mxPoint x="150" y="20" />
            </Array>
          </mxGeometry>
        </mxCell>
        <mxCell id="D-d8iR-5o8ocIs88Af24-52" value="Otra vez" style="rhombus;whiteSpace=wrap;html=1;fontColor=#000000;fillColor=#ffffc0;strokeColor=#ff0000;" parent="1" vertex="1">
          <mxGeometry x="110" y="25" width="80" height="40" as="geometry" />
        </mxCell>
        <mxCell id="D-d8iR-5o8ocIs88Af24-53" value="no" style="edgeStyle=orthogonalEdgeStyle;html=1;align=left;verticalAlign=bottom;endArrow=open;endSize=8;strokeColor=#ff0000;rounded=0;" parent="1" source="D-d8iR-5o8ocIs88Af24-52" target="D-d8iR-5o8ocIs88Af24-55" edge="1">
          <mxGeometry x="0.2" y="10" relative="1" as="geometry">
            <mxPoint x="150" y="110" as="targetPoint" />
            <mxPoint as="offset" />
          </mxGeometry>
        </mxCell>
        <mxCell id="D-d8iR-5o8ocIs88Af24-54" value="yes" style="edgeStyle=orthogonalEdgeStyle;html=1;align=left;verticalAlign=top;endArrow=open;endSize=8;strokeColor=#ff0000;rounded=0;" parent="1" source="D-d8iR-5o8ocIs88Af24-52" target="D-d8iR-5o8ocIs88Af24-48" edge="1">
          <mxGeometry x="-0.2078" y="-20" relative="1" as="geometry">
            <mxPoint x="150" y="120" as="targetPoint" />
            <Array as="points">
              <mxPoint x="50" y="45" />
              <mxPoint x="50" y="-95" />
            </Array>
            <mxPoint as="offset" />
          </mxGeometry>
        </mxCell>
        <mxCell id="D-d8iR-5o8ocIs88Af24-55" value="&amp;nbsp;Mostrar la pagina filtrada&amp;nbsp;" style="rounded=1;whiteSpace=wrap;html=1;arcSize=40;fontColor=#000000;fillColor=#ffffc0;strokeColor=#ff0000;" parent="1" vertex="1">
          <mxGeometry x="90" y="90" width="120" height="30" as="geometry" />
        </mxCell>
        <mxCell id="D-d8iR-5o8ocIs88Af24-56" value="" style="edgeStyle=orthogonalEdgeStyle;html=1;verticalAlign=bottom;endArrow=open;endSize=8;strokeColor=#ff0000;rounded=0;" parent="1" source="D-d8iR-5o8ocIs88Af24-55" target="YumCOL-C7TULn1oq75Tp-21" edge="1">
          <mxGeometry relative="1" as="geometry">
            <mxPoint x="150" y="205" as="targetPoint" />
          </mxGeometry>
        </mxCell>
        <mxCell id="D-d8iR-5o8ocIs88Af24-57" value="Filtar personajes" style="shape=umlFrame;whiteSpace=wrap;html=1;pointerEvents=0;width=70;height=35;" parent="1" vertex="1">
          <mxGeometry x="10" y="-195" width="300" height="405" as="geometry" />
        </mxCell>
        <mxCell id="D-d8iR-5o8ocIs88Af24-58" value="Pulsar en el personaje" style="rounded=1;whiteSpace=wrap;html=1;arcSize=40;fontColor=#000000;fillColor=#ffffc0;strokeColor=#ff0000;" parent="1" vertex="1">
          <mxGeometry x="-270" y="-120" width="120" height="35" as="geometry" />
        </mxCell>
        <mxCell id="D-d8iR-5o8ocIs88Af24-59" value="" style="edgeStyle=orthogonalEdgeStyle;html=1;verticalAlign=bottom;endArrow=open;endSize=8;strokeColor=#ff0000;rounded=0;" parent="1" source="D-d8iR-5o8ocIs88Af24-58" target="D-d8iR-5o8ocIs88Af24-60" edge="1">
          <mxGeometry relative="1" as="geometry">
            <mxPoint x="-210" y="-45" as="targetPoint" />
          </mxGeometry>
        </mxCell>
        <mxCell id="D-d8iR-5o8ocIs88Af24-60" value="Se expande y aparece la informacion detallada" style="rounded=1;whiteSpace=wrap;html=1;arcSize=40;fontColor=#000000;fillColor=#ffffc0;strokeColor=#ff0000;" parent="1" vertex="1">
          <mxGeometry x="-280" y="-55" width="140" height="50" as="geometry" />
        </mxCell>
        <mxCell id="D-d8iR-5o8ocIs88Af24-61" value="" style="edgeStyle=orthogonalEdgeStyle;html=1;verticalAlign=bottom;endArrow=open;endSize=8;strokeColor=#ff0000;rounded=0;" parent="1" source="D-d8iR-5o8ocIs88Af24-60" target="D-d8iR-5o8ocIs88Af24-62" edge="1">
          <mxGeometry relative="1" as="geometry">
            <mxPoint x="-210" y="55" as="targetPoint" />
          </mxGeometry>
        </mxCell>
        <mxCell id="D-d8iR-5o8ocIs88Af24-62" value="Otra vez" style="rhombus;whiteSpace=wrap;html=1;fontColor=#000000;fillColor=#ffffc0;strokeColor=#ff0000;" parent="1" vertex="1">
          <mxGeometry x="-250" y="35" width="80" height="40" as="geometry" />
        </mxCell>
        <mxCell id="D-d8iR-5o8ocIs88Af24-63" value="no" style="edgeStyle=orthogonalEdgeStyle;html=1;align=left;verticalAlign=bottom;endArrow=open;endSize=8;strokeColor=#ff0000;rounded=0;" parent="1" source="D-d8iR-5o8ocIs88Af24-62" target="D-d8iR-5o8ocIs88Af24-67" edge="1">
          <mxGeometry x="-0.764" y="-10" relative="1" as="geometry">
            <mxPoint x="-380" y="95" as="targetPoint" />
            <mxPoint as="offset" />
          </mxGeometry>
        </mxCell>
        <mxCell id="D-d8iR-5o8ocIs88Af24-64" value="yes" style="edgeStyle=orthogonalEdgeStyle;html=1;align=left;verticalAlign=top;endArrow=open;endSize=8;strokeColor=#ff0000;rounded=0;" parent="1" source="D-d8iR-5o8ocIs88Af24-62" target="D-d8iR-5o8ocIs88Af24-65" edge="1">
          <mxGeometry x="-1" y="14" relative="1" as="geometry">
            <mxPoint x="-210" y="117" as="targetPoint" />
            <mxPoint x="-4" y="-10" as="offset" />
          </mxGeometry>
        </mxCell>
        <mxCell id="D-d8iR-5o8ocIs88Af24-65" value="Volver a la pagina inicial" style="rounded=1;whiteSpace=wrap;html=1;arcSize=40;fontColor=#000000;fillColor=#ffffc0;strokeColor=#ff0000;" parent="1" vertex="1">
          <mxGeometry x="-270" y="105" width="120" height="40" as="geometry" />
        </mxCell>
        <mxCell id="D-d8iR-5o8ocIs88Af24-66" value="" style="edgeStyle=orthogonalEdgeStyle;html=1;verticalAlign=bottom;endArrow=open;endSize=8;strokeColor=#ff0000;rounded=0;" parent="1" source="D-d8iR-5o8ocIs88Af24-65" target="YumCOL-C7TULn1oq75Tp-21" edge="1">
          <mxGeometry relative="1" as="geometry">
            <mxPoint x="-330" y="210" as="targetPoint" />
            <Array as="points">
              <mxPoint x="-210" y="260" />
              <mxPoint x="414" y="260" />
            </Array>
          </mxGeometry>
        </mxCell>
        <mxCell id="D-d8iR-5o8ocIs88Af24-67" value="Pulsar en comics" style="rounded=1;whiteSpace=wrap;html=1;arcSize=40;fontColor=#000000;fillColor=#ffffc0;strokeColor=#ff0000;" parent="1" vertex="1">
          <mxGeometry x="-420" y="42.5" width="120" height="25" as="geometry" />
        </mxCell>
        <mxCell id="D-d8iR-5o8ocIs88Af24-68" value="" style="edgeStyle=orthogonalEdgeStyle;html=1;verticalAlign=bottom;endArrow=open;endSize=8;strokeColor=#ff0000;rounded=0;" parent="1" source="D-d8iR-5o8ocIs88Af24-67" target="D-d8iR-5o8ocIs88Af24-69" edge="1">
          <mxGeometry relative="1" as="geometry">
            <mxPoint x="-360" y="125" as="targetPoint" />
            <Array as="points" />
          </mxGeometry>
        </mxCell>
        <mxCell id="D-d8iR-5o8ocIs88Af24-69" value="Ir a una pagina" style="rounded=1;whiteSpace=wrap;html=1;arcSize=40;fontColor=#000000;fillColor=#ffffc0;strokeColor=#ff0000;" parent="1" vertex="1">
          <mxGeometry x="-420" y="105" width="120" height="40" as="geometry" />
        </mxCell>
        <mxCell id="D-d8iR-5o8ocIs88Af24-70" value="" style="edgeStyle=orthogonalEdgeStyle;html=1;verticalAlign=bottom;endArrow=open;endSize=8;strokeColor=#ff0000;rounded=0;" parent="1" source="D-d8iR-5o8ocIs88Af24-69" target="YumCOL-C7TULn1oq75Tp-25" edge="1">
          <mxGeometry relative="1" as="geometry">
            <mxPoint x="-360" y="185" as="targetPoint" />
          </mxGeometry>
        </mxCell>
        <mxCell id="D-d8iR-5o8ocIs88Af24-72" value="Detalle de personaje y favoritos" style="shape=umlFrame;whiteSpace=wrap;html=1;pointerEvents=0;width=130;height=30;" parent="1" vertex="1">
          <mxGeometry x="-690" y="-200" width="580" height="480" as="geometry" />
        </mxCell>
        <mxCell id="hnUUF3U-iDuPoO4mx8um-9" value="Sigue" style="rhombus;whiteSpace=wrap;html=1;fontColor=#000000;fillColor=#ffffc0;strokeColor=#ff0000;" parent="1" vertex="1">
          <mxGeometry x="110" y="140" width="80" height="40" as="geometry" />
        </mxCell>
        <mxCell id="hnUUF3U-iDuPoO4mx8um-10" value="no" style="edgeStyle=orthogonalEdgeStyle;html=1;align=left;verticalAlign=bottom;endArrow=open;endSize=8;strokeColor=#ff0000;rounded=0;" parent="1" source="hnUUF3U-iDuPoO4mx8um-9" target="YumCOL-C7TULn1oq75Tp-21" edge="1">
          <mxGeometry x="-1" relative="1" as="geometry">
            <mxPoint x="290" y="160" as="targetPoint" />
          </mxGeometry>
        </mxCell>
        <mxCell id="hnUUF3U-iDuPoO4mx8um-11" value="yes" style="edgeStyle=orthogonalEdgeStyle;html=1;align=left;verticalAlign=top;endArrow=open;endSize=8;strokeColor=#ff0000;rounded=0;" parent="1" source="hnUUF3U-iDuPoO4mx8um-9" target="D-d8iR-5o8ocIs88Af24-48" edge="1">
          <mxGeometry x="-0.7468" y="10" relative="1" as="geometry">
            <mxPoint x="150" y="240" as="targetPoint" />
            <Array as="points">
              <mxPoint x="30" y="160" />
              <mxPoint x="30" y="-95" />
            </Array>
            <mxPoint as="offset" />
          </mxGeometry>
        </mxCell>
        <mxCell id="hnUUF3U-iDuPoO4mx8um-16" value="" style="edgeStyle=orthogonalEdgeStyle;html=1;verticalAlign=bottom;endArrow=open;endSize=8;strokeColor=#ff0000;rounded=0;" parent="1" source="D-d8iR-5o8ocIs88Af24-55" target="hnUUF3U-iDuPoO4mx8um-9" edge="1">
          <mxGeometry relative="1" as="geometry">
            <mxPoint x="160" y="35" as="targetPoint" />
            <Array as="points" />
            <mxPoint x="160" y="-5" as="sourcePoint" />
          </mxGeometry>
        </mxCell>
        <mxCell id="hnUUF3U-iDuPoO4mx8um-17" value="Pulsar en favorito" style="rounded=1;whiteSpace=wrap;html=1;arcSize=40;fontColor=#000000;fillColor=#ffffc0;strokeColor=#ff0000;" parent="1" vertex="1">
          <mxGeometry x="-660" y="-130" width="120" height="25" as="geometry" />
        </mxCell>
        <mxCell id="hnUUF3U-iDuPoO4mx8um-18" value="" style="edgeStyle=orthogonalEdgeStyle;html=1;verticalAlign=bottom;endArrow=open;endSize=8;strokeColor=#ff0000;rounded=0;" parent="1" source="hnUUF3U-iDuPoO4mx8um-17" target="hnUUF3U-iDuPoO4mx8um-20" edge="1">
          <mxGeometry relative="1" as="geometry">
            <mxPoint x="-550" y="-75" as="targetPoint" />
          </mxGeometry>
        </mxCell>
        <mxCell id="hnUUF3U-iDuPoO4mx8um-19" value="" style="edgeStyle=orthogonalEdgeStyle;html=1;verticalAlign=bottom;endArrow=open;endSize=8;strokeColor=#ff0000;rounded=0;" parent="1" source="YumCOL-C7TULn1oq75Tp-21" target="hnUUF3U-iDuPoO4mx8um-17" edge="1">
          <mxGeometry relative="1" as="geometry">
            <mxPoint x="-240" y="-40" as="targetPoint" />
            <mxPoint x="-240" y="-70" as="sourcePoint" />
          </mxGeometry>
        </mxCell>
        <mxCell id="hnUUF3U-iDuPoO4mx8um-20" value="Se guarda en favoritos" style="rounded=1;whiteSpace=wrap;html=1;arcSize=40;fontColor=#000000;fillColor=#ffffc0;strokeColor=#ff0000;" parent="1" vertex="1">
          <mxGeometry x="-660" y="-85" width="120" height="40" as="geometry" />
        </mxCell>
        <mxCell id="hnUUF3U-iDuPoO4mx8um-21" value="" style="edgeStyle=orthogonalEdgeStyle;html=1;verticalAlign=bottom;endArrow=open;endSize=8;strokeColor=#ff0000;rounded=0;" parent="1" source="hnUUF3U-iDuPoO4mx8um-20" target="hnUUF3U-iDuPoO4mx8um-25" edge="1">
          <mxGeometry relative="1" as="geometry">
            <mxPoint x="-600" y="-15" as="targetPoint" />
          </mxGeometry>
        </mxCell>
        <mxCell id="hnUUF3U-iDuPoO4mx8um-25" value="Otra vez" style="rhombus;whiteSpace=wrap;html=1;fontColor=#000000;fillColor=#ffffc0;strokeColor=#ff0000;" parent="1" vertex="1">
          <mxGeometry x="-640" y="-10" width="80" height="40" as="geometry" />
        </mxCell>
        <mxCell id="hnUUF3U-iDuPoO4mx8um-26" value="no" style="edgeStyle=orthogonalEdgeStyle;html=1;align=left;verticalAlign=bottom;endArrow=open;endSize=8;strokeColor=#ff0000;rounded=0;" parent="1" source="hnUUF3U-iDuPoO4mx8um-25" target="YumCOL-C7TULn1oq75Tp-21" edge="1">
          <mxGeometry x="-0.9513" y="10" relative="1" as="geometry">
            <mxPoint x="-450" y="10" as="targetPoint" />
            <Array as="points">
              <mxPoint x="-600" y="260" />
              <mxPoint x="414" y="260" />
            </Array>
            <mxPoint as="offset" />
          </mxGeometry>
        </mxCell>
        <mxCell id="hnUUF3U-iDuPoO4mx8um-27" value="yes" style="edgeStyle=orthogonalEdgeStyle;html=1;align=left;verticalAlign=top;endArrow=open;endSize=8;strokeColor=#ff0000;rounded=0;" parent="1" source="hnUUF3U-iDuPoO4mx8um-25" target="hnUUF3U-iDuPoO4mx8um-17" edge="1">
          <mxGeometry x="-0.7122" y="30" relative="1" as="geometry">
            <mxPoint x="-590" y="90" as="targetPoint" />
            <Array as="points">
              <mxPoint x="-440" y="10" />
              <mxPoint x="-440" y="-117.5" />
            </Array>
            <mxPoint as="offset" />
          </mxGeometry>
        </mxCell>
      </root>
    </mxGraphModel>
  </diagram>
</mxfile>
